<svg xmlns="http://www.w3.org/2000/svg" xmlns:xlink="http://www.w3.org/1999/xlink" id="_x38_8ce59e9-c4b8-4d1d-9d7a-ce0190159aa8" x="0" y="0" version="1.1" viewBox="0 0 231.8 231.8" xml:space="preserve" style="enable-background:new 0 0 231.8 231.8"><style type="text/css">.st0{opacity:.5}.st1{fill:url(#SVGID_1_)}.st2{fill:#f5f5f5}.st3{fill:#4e73df}.st4{fill:#72351c}.st5{opacity:.1;enable-background:new}.st6{fill:#fda57d}</style><g class="st0"><linearGradient id="SVGID_1_" x1="115.89" x2="115.89" y1="526.22" y2="758" gradientTransform="matrix(1 0 0 -1 0 758)" gradientUnits="userSpaceOnUse"><stop offset="0" style="stop-color:gray;stop-opacity:.25"/><stop offset=".54" style="stop-color:gray;stop-opacity:.12"/><stop offset="1" style="stop-color:gray;stop-opacity:.1"/></linearGradient><circle cx="115.9" cy="115.9" r="115.9" class="st1"/></g><circle cx="116.1" cy="115.1" r="113.4" class="st2"/><path d="M116.2,229c22.2,0,43.9-6.5,62.4-18.7c-4.2-22.9-20.1-24.2-20.1-24.2H70.8c0,0-15,1.2-19.7,22.2	C70.1,221.9,92.9,229.1,116.2,229z" class="st3"/><circle cx="115" cy="112.8" r="54.8" class="st4"/><path d="M97.3,158.4h35.1l0,0v28.1c0,9.7-7.8,17.6-17.5,17.6c0,0,0,0,0,0l0,0c-9.7,0-17.5-7.9-17.5-17.5L97.3,158.4	L97.3,158.4z" class="st5"/><path d="M100.7,157.1h28.4c1.9,0,3.3,1.5,3.3,3.4v24.7c0,9.7-7.9,17.5-17.5,17.5l0,0c-9.7,0-17.5-7.9-17.5-17.5v-24.7	C97.3,158.6,98.8,157.1,100.7,157.1L100.7,157.1z" class="st6"/><path d="M97.4,171.6c11.3,4.2,23.8,4.3,35.1,0.1v-4.3H97.4V171.6z" class="st5"/><circle cx="115" cy="123.7" r="50.3" class="st6"/><path d="M79.2,77.9c0,0,21.2,43,81,18l-13.9-21.8l-24.7-8.9L79.2,77.9z" class="st5"/><path d="M79.2,77.3c0,0,21.2,43,81,18l-13.9-21.8l-24.7-8.9L79.2,77.3z" class="st4"/><path d="M79,74.4c1.4-4.4,3.9-8.4,7.2-11.7c9.9-9.8,26.1-11.8,34.4-23c1.8,3.1,0.7,7.1-2.4,8.9	c-0.2,0.1-0.4,0.2-0.6,0.3c8-0.1,17.2-0.8,21.7-7.3c2.3,5.3,1.3,11.4-2.5,15.7c7.1,0.3,14.6,5.1,15.1,12.2c0.3,4.7-2.6,9.1-6.5,11.9	s-8.5,3.9-13.1,4.9C118.8,89.2,70.3,101.6,79,74.4z" class="st4"/><path d="M165.3,124.1H164L138,147.2c-25-11.7-43.3,0-43.3,0l-27.2-22.1l-2.7,0.3c0.8,27.8,23.9,49.6,51.7,48.9	C143.6,173.5,165.3,151.3,165.3,124.1L165.3,124.1z M115,156.1c-9.8,0-17.7-2-17.7-4.4s7.9-4.4,17.7-4.4s17.7,2,17.7,4.4	S124.7,156.1,115,156.1L115,156.1z" class="st4"/><ellipse cx="64.7" cy="123.6" class="st6" rx="4.7" ry="8.8"/><ellipse cx="165.3" cy="123.6" class="st6" rx="4.7" ry="8.8"/></svg>