<svg xmlns="http://www.w3.org/2000/svg" xmlns:xlink="http://www.w3.org/1999/xlink" id="_x38_8ce59e9-c4b8-4d1d-9d7a-ce0190159aa8" x="0" y="0" version="1.1" viewBox="0 0 231.8 231.8" xml:space="preserve" style="enable-background:new 0 0 231.8 231.8"><style type="text/css">.st0{opacity:.5}.st1{fill:url(#SVGID_1_)}.st2{fill:#f5f5f5}.st3{fill:#333}.st4{fill:#4e73df}.st5{opacity:.1;enable-background:new}.st6{fill:#be7c5e}</style><g class="st0"><linearGradient id="SVGID_1_" x1="115.89" x2="115.89" y1="525.2" y2="756.98" gradientTransform="matrix(1 0 0 -1 0 756.98)" gradientUnits="userSpaceOnUse"><stop offset="0" style="stop-color:gray;stop-opacity:.25"/><stop offset=".54" style="stop-color:gray;stop-opacity:.12"/><stop offset="1" style="stop-color:gray;stop-opacity:.1"/></linearGradient><circle cx="115.9" cy="115.9" r="115.9" class="st1"/></g><circle cx="115.9" cy="115.3" r="113.4" class="st2"/><path d="M71.6,116.3c0,0-12.9,63.4-19.9,59.8c0,0,67.7,58.5,127.5,0c0,0-10.5-44.6-25.7-59.8H71.6z" class="st3"/><path d="M116.2,229c22.2,0,43.9-6.5,62.4-18.7c-4.2-22.8-20.1-24.1-20.1-24.1H70.8c0,0-15,1.2-19.7,22.2	C70.1,221.9,92.9,229.1,116.2,229z" class="st4"/><circle cx="115" cy="112.8" r="50.3" class="st3"/><path d="M97.3,158.4h35.1l0,0v28.1c0,9.7-7.8,17.5-17.5,17.5l0,0c-9.7,0-17.5-7.9-17.5-17.5L97.3,158.4L97.3,158.4z" class="st5"/><path d="M100.7,157.1h28.4c1.9,0,3.4,1.5,3.4,3.3v0v24.7c0,9.7-7.8,17.5-17.5,17.5l0,0c-9.7,0-17.5-7.9-17.5-17.5v0	v-24.7C97.4,158.6,98.9,157.1,100.7,157.1z" class="st6"/><path d="M97.4,171.6c11.3,4.2,23.8,4.3,35.1,0.1v-4.3H97.4V171.6z" class="st5"/><circle cx="115" cy="123.7" r="50.3" class="st6"/><path d="M66.9,104.6h95.9c0,0-8.2-38.7-44.4-36.2S66.9,104.6,66.9,104.6z" class="st3"/><ellipse cx="65.8" cy="121.5" class="st6" rx="4.7" ry="8.8"/><ellipse cx="164" cy="121.5" class="st6" rx="4.7" ry="8.8"/><path d="M66.9,105.9h95.9c0,0-8.2-38.7-44.4-36.2S66.9,105.9,66.9,105.9z" class="st5"/></svg>